<?xml version="1.0" encoding="UTF-8"?>
<!DOCTYPE svg PUBLIC "-//W3C//DTD SVG 1.1//EN" "http://www.w3.org/Graphics/SVG/1.1/DTD/svg11.dtd">
<svg xmlns="http://www.w3.org/2000/svg" version="1.1" width="512px" height="512px" style="shape-rendering:geometricPrecision; text-rendering:geometricPrecision; image-rendering:optimizeQuality; fill-rule:evenodd; clip-rule:evenodd" xmlns:xlink="http://www.w3.org/1999/xlink">
<g><path style="opacity:0.981" fill="#020100" d="M 306.5,-0.5 C 312.5,-0.5 318.5,-0.5 324.5,-0.5C 332.873,2.19203 340.206,6.69203 346.5,13C 354.673,17.6293 362.673,17.2959 370.5,12C 378.197,2.63899 387.863,-0.694344 399.5,2C 404.147,4.10578 407.314,7.60578 409,12.5C 409.657,20.5228 409.49,28.5228 408.5,36.5C 428.206,42.5477 439.206,55.8811 441.5,76.5C 440.808,87.7138 436.475,97.2138 428.5,105C 445.784,108.888 460.617,117.055 473,129.5C 476.407,134.13 476.241,138.63 472.5,143C 468.961,144.504 465.295,144.837 461.5,144C 446.048,128.732 427.381,121.066 405.5,121C 448.207,157.204 478.374,202.037 496,255.5C 503.423,278.133 508.59,301.133 511.5,324.5C 511.5,336.833 511.5,349.167 511.5,361.5C 501.804,420.356 467.138,453.189 407.5,460C 361.167,460.667 314.833,460.667 268.5,460C 265.724,458.292 264.057,455.792 263.5,452.5C 263.72,448.441 265.72,445.608 269.5,444C 313.167,443.667 356.833,443.333 400.5,443C 407.606,442.718 414.606,441.718 421.5,440C 423.852,439.76 425.852,438.927 427.5,437.5C 462.806,428.025 484.306,405.358 492,369.5C 495.927,344.65 494.927,319.984 489,295.5C 474.661,229.279 441.828,174.446 390.5,131C 382.175,124.836 373.508,119.169 364.5,114C 361.214,113.93 358.214,114.764 355.5,116.5C 353.821,116.892 352.154,117.392 350.5,118C 358.636,125.135 366.47,132.635 374,140.5C 374.756,152.069 369.923,155.236 359.5,150C 348.63,139.628 337.63,129.461 326.5,119.5C 325.791,118.596 324.791,118.263 323.5,118.5C 323.5,127.833 323.5,137.167 323.5,146.5C 320.231,152.863 315.397,154.196 309,150.5C 308.333,149.167 307.667,147.833 307,146.5C 306.5,137.173 306.334,127.839 306.5,118.5C 305.448,118.351 304.448,118.517 303.5,119C 291.833,130 280.167,141 268.5,152C 259.355,154.179 255.189,150.679 256,141.5C 263.654,133.679 271.488,126.013 279.5,118.5C 275.51,116.836 271.51,115.169 267.5,113.5C 237.467,130.864 212.134,153.531 191.5,181.5C 188.291,183.594 184.957,183.927 181.5,182.5C 178.073,179.626 176.906,175.959 178,171.5C 183.427,164.317 189.094,157.317 195,150.5C 195.667,130.833 195.667,111.167 195,91.5C 180.371,98.7262 164.871,102.06 148.5,101.5C 132.75,102.043 117.75,99.0429 103.5,92.5C 103.44,91.9569 103.107,91.6236 102.5,91.5C 101.172,112.329 101.172,132.996 102.5,153.5C 117.605,153.887 131.938,157.387 145.5,164C 153.653,168.151 158.82,174.651 161,183.5C 161.5,193.828 161.666,204.161 161.5,214.5C 161.5,248.167 161.5,281.833 161.5,315.5C 177.077,314.621 192.411,316.121 207.5,320C 221.737,323.337 231.904,331.504 238,344.5C 238.5,380.498 238.667,416.498 238.5,452.5C 240.626,464.295 236.96,473.795 227.5,481C 215.883,488.317 203.216,492.65 189.5,494C 167.803,497.183 147.136,494.016 127.5,484.5C 120.887,495.821 111.221,503.321 98.5,507C 92.0707,508.692 85.7373,510.192 79.5,511.5C 68.8333,511.5 58.1667,511.5 47.5,511.5C 35.5566,509.838 24.2233,506.005 13.5,500C 7.54443,495.884 2.87776,490.717 -0.5,484.5C -0.5,465.833 -0.5,447.167 -0.5,428.5C 1.73772,422.739 5.40438,417.906 10.5,414C 17.5635,409.551 25.0635,406.051 33,403.5C 33.3333,329.5 33.6667,255.5 34,181.5C 36.5999,173.791 41.4332,167.958 48.5,164C 59.7626,157.968 71.7626,154.468 84.5,153.5C 84.3334,123.165 84.5,92.8315 85,62.5C 88.8075,52.0258 95.9741,44.8592 106.5,41C 130.404,32.5912 154.737,31.2579 179.5,37C 191.357,39.5446 201.191,45.378 209,54.5C 210.908,57.2154 212.241,60.2154 213,63.5C 213.333,85.8333 213.667,108.167 214,130.5C 225.351,119.913 237.518,110.413 250.5,102C 232.331,82.1422 222.498,58.6422 221,31.5C 220.333,25.5 220.333,19.5 221,13.5C 227.05,0.372163 236.55,-2.7945 249.5,4C 253.783,6.61529 257.783,9.61529 261.5,13C 268.005,16.9629 274.671,17.2962 281.5,14C 285.783,11.3847 289.783,8.38471 293.5,5C 297.741,2.6512 302.075,0.817868 306.5,-0.5 Z M 405.5,54.5 C 415.492,58.4986 421.492,65.8319 423.5,76.5C 421.261,87.907 414.595,95.407 403.5,99C 396.227,101.596 388.894,101.93 381.5,100C 393.301,86.9002 401.301,71.7335 405.5,54.5 Z"/></g>
<g><path style="opacity:1" fill="#fcd900" d="M 373.5,30.5 C 373.136,57.0437 363.469,79.877 344.5,99C 343.473,99.5133 342.473,100.013 341.5,100.5C 347.931,88.3796 353.098,75.713 357,62.5C 358.349,55.8459 355.683,51.8459 349,50.5C 346.793,51.0297 344.793,52.0297 343,53.5C 337.633,70.2324 330.133,85.8991 320.5,100.5C 317.216,101.657 313.882,101.824 310.5,101C 300.741,86.6469 293.241,71.1469 288,54.5C 282.186,48.7949 277.186,49.4616 273,56.5C 275.913,72.0188 281.413,86.6855 289.5,100.5C 281.239,101.693 273.905,99.5261 267.5,94C 246.507,73.2207 237.174,48.054 239.5,18.5C 243.309,21.1421 246.976,23.9754 250.5,27C 269.526,37.2616 286.859,34.9283 302.5,20C 310.008,15.802 317.674,15.4686 325.5,19C 332.262,25.717 340.262,30.3837 349.5,33C 357.758,34.1526 365.758,33.3193 373.5,30.5 Z"/></g>
<g><path style="opacity:1" fill="#fabe07" d="M 389.5,19.5 C 391.344,21.2789 392.01,23.6122 391.5,26.5C 390.93,46.0421 385.43,64.0421 375,80.5C 368.478,90.3599 359.644,97.1932 348.5,101C 345.362,101.802 343.029,101.636 341.5,100.5C 342.473,100.013 343.473,99.5133 344.5,99C 363.469,79.877 373.136,57.0437 373.5,30.5C 379.144,27.34 384.477,23.6733 389.5,19.5 Z"/></g>
<g><path style="opacity:1" fill="#735703" d="M 389.5,19.5 C 390.209,18.596 391.209,18.2627 392.5,18.5C 392.806,21.3854 392.473,24.0521 391.5,26.5C 392.01,23.6122 391.344,21.2789 389.5,19.5 Z"/></g>
<g><path style="opacity:1" fill="#fbd800" d="M 136.5,50.5 C 151.916,49.2642 166.916,51.0975 181.5,56C 199.616,63.181 199.949,70.8476 182.5,79C 166.213,84.1314 149.547,85.798 132.5,84C 121.993,82.5016 112.493,78.6683 104,72.5C 101.302,70.0892 100.968,67.4226 103,64.5C 106.06,61.3865 109.56,58.8865 113.5,57C 121.071,54.0278 128.738,51.8611 136.5,50.5 Z"/></g>
<g><path style="opacity:1" fill="#985a00" d="M 103.5,92.5 C 102.503,112.66 102.17,132.993 102.5,153.5C 101.172,132.996 101.172,112.329 102.5,91.5C 103.107,91.6236 103.44,91.9569 103.5,92.5 Z"/></g>
<g><path style="opacity:1" fill="#fd9701" d="M 181.5,182.5 C 173.832,192.494 167.166,203.161 161.5,214.5C 161.666,204.161 161.5,193.828 161,183.5C 158.82,174.651 153.653,168.151 145.5,164C 131.938,157.387 117.605,153.887 102.5,153.5C 102.17,132.993 102.503,112.66 103.5,92.5C 117.75,99.0429 132.75,102.043 148.5,101.5C 164.871,102.06 180.371,98.7262 195,91.5C 195.667,111.167 195.667,130.833 195,150.5C 189.094,157.317 183.427,164.317 178,171.5C 176.906,175.959 178.073,179.626 181.5,182.5 Z"/></g>
<g><path style="opacity:1" fill="#fddb00" d="M 323.5,146.5 C 323.844,137.287 324.844,128.287 326.5,119.5C 337.63,129.461 348.63,139.628 359.5,150C 369.923,155.236 374.756,152.069 374,140.5C 366.47,132.635 358.636,125.135 350.5,118C 352.154,117.392 353.821,116.892 355.5,116.5C 357.655,116.372 359.655,116.872 361.5,118C 406.175,151.698 438.342,194.865 458,247.5C 467.328,273.81 473.661,300.81 477,328.5C 477.819,334.681 477.653,340.681 476.5,346.5C 471.883,339.062 466.716,338.729 461,345.5C 458.272,388.891 435.105,410.058 391.5,409C 384.351,413.522 383.685,418.855 389.5,425C 417.539,427.209 441.372,418.376 461,398.5C 465.05,392.394 468.55,386.061 471.5,379.5C 465.763,405.283 451.096,424.616 427.5,437.5C 425.852,438.927 423.852,439.76 421.5,440C 414.606,441.718 407.606,442.718 400.5,443C 356.833,443.333 313.167,443.667 269.5,444C 265.72,445.608 263.72,448.441 263.5,452.5C 255.167,452.5 246.833,452.5 238.5,452.5C 238.667,416.498 238.5,380.498 238,344.5C 231.904,331.504 221.737,323.337 207.5,320C 192.411,316.121 177.077,314.621 161.5,315.5C 161.5,281.833 161.5,248.167 161.5,214.5C 167.166,203.161 173.832,192.494 181.5,182.5C 184.957,183.927 188.291,183.594 191.5,181.5C 212.134,153.531 237.467,130.864 267.5,113.5C 271.51,115.169 275.51,116.836 279.5,118.5C 271.488,126.013 263.654,133.679 256,141.5C 255.189,150.679 259.355,154.179 268.5,152C 280.167,141 291.833,130 303.5,119C 304.448,118.517 305.448,118.351 306.5,118.5C 306.334,127.839 306.5,137.173 307,146.5C 307.667,147.833 308.333,149.167 309,150.5C 315.397,154.196 320.231,152.863 323.5,146.5 Z"/></g>
<g><path style="opacity:1" fill="#f9bd07" d="M 427.5,437.5 C 451.096,424.616 465.763,405.283 471.5,379.5C 475.223,368.828 476.89,357.828 476.5,346.5C 477.653,340.681 477.819,334.681 477,328.5C 473.661,300.81 467.328,273.81 458,247.5C 438.342,194.865 406.175,151.698 361.5,118C 359.655,116.872 357.655,116.372 355.5,116.5C 358.214,114.764 361.214,113.93 364.5,114C 373.508,119.169 382.175,124.836 390.5,131C 441.828,174.446 474.661,229.279 489,295.5C 494.927,319.984 495.927,344.65 492,369.5C 484.306,405.358 462.806,428.025 427.5,437.5 Z"/></g>
<g><path style="opacity:1" fill="#a28c00" d="M 326.5,119.5 C 324.844,128.287 323.844,137.287 323.5,146.5C 323.5,137.167 323.5,127.833 323.5,118.5C 324.791,118.263 325.791,118.596 326.5,119.5 Z"/></g>
<g><path style="opacity:1" fill="#fbd800" d="M 81.5,170.5 C 96.3466,169.72 111.013,170.886 125.5,174C 132.659,175.827 138.826,179.327 144,184.5C 144.471,189.072 142.637,192.572 138.5,195C 116.619,205.2 93.9519,207.2 70.5,201C 62.8288,199.084 56.3288,195.25 51,189.5C 50.3421,185.975 51.5088,183.141 54.5,181C 62.8681,175.604 71.8681,172.104 81.5,170.5 Z"/></g>
<g><path style="opacity:1" fill="#040300" d="M 311.5,187.5 C 315.516,186.9 319.016,187.9 322,190.5C 323.379,195.036 323.879,199.703 323.5,204.5C 346.122,206.617 357.289,218.95 357,241.5C 354.459,246.069 350.625,247.569 345.5,246C 343.622,244.457 342.122,242.624 341,240.5C 340.855,228.857 335.021,222.524 323.5,221.5C 323.5,232.833 323.5,244.167 323.5,255.5C 348.245,258.653 359.412,272.653 357,297.5C 352.088,314.247 340.922,322.914 323.5,323.5C 323.666,327.514 323.499,331.514 323,335.5C 320.459,340.069 316.625,341.569 311.5,340C 309.274,338.773 307.774,336.939 307,334.5C 306.501,330.848 306.335,327.182 306.5,323.5C 285.792,321.959 274.459,310.793 272.5,290C 273.398,282.875 277.398,280.208 284.5,282C 286.667,282.833 288.167,284.333 289,286.5C 289.088,298.409 294.921,305.076 306.5,306.5C 306.5,295.167 306.5,283.833 306.5,272.5C 290.026,271.529 279.193,263.195 274,247.5C 270.176,227.981 277.343,214.147 295.5,206C 299.06,204.763 302.727,204.263 306.5,204.5C 306.334,200.486 306.501,196.486 307,192.5C 308.707,190.963 310.207,189.296 311.5,187.5 Z"/></g>
<g><path style="opacity:1" fill="#fd9701" d="M 50.5,211.5 C 81.8333,224.833 113.167,224.833 144.5,211.5C 144.5,247.5 144.5,283.5 144.5,319.5C 133.9,321.383 124.734,326.05 117,333.5C 114.938,335.901 113.271,338.567 112,341.5C 110.874,364.458 110.041,387.458 109.5,410.5C 90.69,402.272 71.0234,398.939 50.5,400.5C 50.5,337.5 50.5,274.5 50.5,211.5 Z"/></g>
<g><path style="opacity:1" fill="#fad800" d="M 301.5,221.5 C 303.167,221.5 304.833,221.5 306.5,221.5C 306.5,232.833 306.5,244.167 306.5,255.5C 291.515,252.533 286.682,243.866 292,229.5C 294.735,226.231 297.901,223.564 301.5,221.5 Z"/></g>
<g><path style="opacity:1" fill="#b99f00" d="M 328.5,273.5 C 327.167,273.5 325.833,273.5 324.5,273.5C 324.5,284.5 324.5,295.5 324.5,306.5C 323.505,295.346 323.172,284.012 323.5,272.5C 325.415,272.216 327.081,272.549 328.5,273.5 Z"/></g>
<g><path style="opacity:1" fill="#fad700" d="M 328.5,273.5 C 340.746,278.596 343.912,287.263 338,299.5C 334.64,304.096 330.14,306.429 324.5,306.5C 324.5,295.5 324.5,284.5 324.5,273.5C 325.833,273.5 327.167,273.5 328.5,273.5 Z"/></g>
<g><path style="opacity:1" fill="#fbe739" d="M 159.5,332.5 C 180.068,329.652 199.402,333.152 217.5,343C 220.491,345.141 221.658,347.975 221,351.5C 214.764,357.87 207.264,362.036 198.5,364C 181.075,367.607 163.741,367.274 146.5,363C 139.201,360.778 133.035,356.945 128,351.5C 127.342,347.975 128.509,345.141 131.5,343C 140.297,337.794 149.63,334.294 159.5,332.5 Z"/></g>
<g><path style="opacity:1" fill="#040300" d="M 476.5,346.5 C 476.89,357.828 475.223,368.828 471.5,379.5C 468.55,386.061 465.05,392.394 461,398.5C 441.372,418.376 417.539,427.209 389.5,425C 383.685,418.855 384.351,413.522 391.5,409C 435.105,410.058 458.272,388.891 461,345.5C 466.716,338.729 471.883,339.062 476.5,346.5 Z"/></g>
<g><path style="opacity:1" fill="#fdda00" d="M 127.5,373.5 C 158.455,386.721 189.455,386.721 220.5,373.5C 221.667,403.161 221.833,432.828 221,462.5C 214.538,469.149 206.704,473.316 197.5,475C 178.531,479.099 159.864,478.099 141.5,472C 135.96,470.16 131.46,466.994 128,462.5C 127.5,432.835 127.333,403.169 127.5,373.5 Z"/></g>
<g><path style="opacity:1" fill="#fbe739" d="M 50.5,417.5 C 69.3982,415.816 87.3982,418.983 104.5,427C 112.565,432.769 112.232,438.103 103.5,443C 90.1356,449.6 75.969,452.433 61,451.5C 46.3949,452.141 32.8949,448.641 20.5,441C 17.5088,438.859 16.3421,436.025 17,432.5C 20.5362,427.98 25.0362,424.814 30.5,423C 37.1419,420.581 43.8086,418.748 50.5,417.5 Z"/></g>
<g><path style="opacity:1" fill="#fad700" d="M 16.5,458.5 C 39.5889,468.741 63.5889,471.241 88.5,466C 95.889,464.57 102.889,462.07 109.5,458.5C 110.664,465.476 110.831,472.476 110,479.5C 108.833,482 107,483.833 104.5,485C 81.1944,495.64 57.1944,497.306 32.5,490C 26.3064,487.834 21.1398,484.334 17,479.5C 16.5004,472.508 16.3337,465.508 16.5,458.5 Z"/></g>
</svg>
